<svg width="2000" height="1503" viewBox="0 0 2000 1503" fill="none" xmlns="http://www.w3.org/2000/svg">
<path d="M879.29 1181.67C860.691 1085.66 929.659 866.374 966.466 768.732C978.736 774.539 1081.41 754.538 1114.35 706.793C1140.69 668.597 1185.44 653.595 1207.33 646.789C1236.39 637.755 1284.83 639.046 1293.87 660.983L1303.55 683.566C1335.2 774.539 1307.64 912.829 1288.06 974.554L1215.73 987.458C1160.97 898.679 1189.04 790.455 1209.92 747.441C1187.7 777.379 1125.32 808.95 1096.91 820.994C1095.62 900.355 974.216 1173.92 947.74 1191.34C926.56 1205.28 893.282 1190.7 879.29 1181.67Z" fill="black"/>
<path d="M925.674 1197.48L916.632 1213.91M888.212 1187.07L870.961 1232.62L869.481 1236.53C867.84 1240.47 866.702 1247.09 869.481 1252.72C871.441 1256.7 875.349 1260.18 882.4 1261.91C899.451 1266.07 963.567 1270.58 993.494 1272.32C998.661 1272.97 1008.48 1270.5 1006.41 1255.4C1004.34 1240.3 993.494 1226.48 981.222 1220.91C971.267 1216.38 945.598 1209.36 916.632 1213.91L888.212 1187.07ZM907.589 1215.7C910.63 1214.97 913.649 1214.38 916.632 1213.91L907.589 1215.7Z" stroke="black" stroke-width="5" stroke-linecap="round"/>
<path d="M1226.04 983.957C1225.4 1003.1 1227.14 1040.79 1231.87 1046.56C1237.7 1053.65 1244.82 1054.3 1288.2 1040.75C1322.9 1029.9 1336.75 1029.78 1345.17 1028.49C1350.99 1027.59 1358.12 1026.81 1358.12 1012.35C1358.12 994.282 1350.99 982.021 1328.98 979.439C1311.37 977.374 1286.25 988.044 1275.9 993.636V976.213" stroke="black" stroke-width="5" stroke-linecap="round"/>
<path d="M1143.18 334.392C1076.67 341.113 945.99 369.439 955.288 428.977C956.713 434.032 960.808 442.098 968.443 449.686C975.796 456.994 986.432 463.858 1001.13 467.16" stroke="black" stroke-width="5" stroke-linecap="round"/>
<path d="M968.442 449.685C989.238 482.043 1050.2 552.324 1127.68 574.586" stroke="black" stroke-width="5" stroke-linecap="round"/>
<path d="M1127.18 574.586C1131.92 568.224 1144.36 556.724 1158.98 556.179" stroke="black" stroke-width="5" stroke-linecap="round"/>
<path d="M1158.98 556.179C1158.55 538.008 1143.22 491.149 1085.35 449.078" stroke="black" stroke-width="5" stroke-linecap="round"/>
<path d="M1068.61 464.139C1074.62 454.415 1093.07 433.771 1118.81 428.997" stroke="black" stroke-width="5" stroke-linecap="round"/>
<path d="M1212.53 445.731C1215.32 449.028 1220.89 457.994 1220.89 467.486" stroke="black" stroke-width="5" stroke-linecap="round"/>
<path d="M1211.87 584.646C1225.06 584.001 1252.6 582.067 1257.27 579.486C1263.11 576.263 1264.4 576.263 1264.4 569.814C1264.4 563.366 1211.87 574.329 1211.87 553.694C1216.63 548.964 1224.32 538.346 1217.06 533.703C1209.79 529.06 1194.57 542.517 1187.87 549.824C1180.96 557.132 1165.43 568.654 1158.69 556.272" stroke="black" stroke-width="5" stroke-linecap="round"/>
<path d="M1128.86 574.329C1134.69 591.309 1155.71 621.787 1193.06 607.859C1230.42 593.931 1231.98 586.58 1228.08 584.645" stroke="black" stroke-width="5" stroke-linecap="round"/>
<path d="M1450.59 581.554C1459.67 579.073 1479.51 567.531 1486.26 541.208C1493 514.886 1483.88 514.757 1478.47 517.982" stroke="black" stroke-width="5" stroke-linecap="round"/>
<path d="M1416.87 562.499C1419.68 547.875 1429.58 519.661 1446.7 523.789" stroke="black" stroke-width="5" stroke-linecap="round"/>
<path d="M1424.01 538.627C1412.07 528.821 1404.77 551.315 1402.61 563.789C1389.12 567.917 1384.02 587.445 1383.15 596.692C1414.36 599.894 1436.54 591.511 1450.59 581.554C1459.19 575.458 1464.74 568.771 1467.45 563.789C1474.15 545.94 1483.92 508.693 1469.4 502.499C1454.87 496.306 1450.81 510.241 1450.59 517.982C1452.15 535.531 1443.03 554.972 1438.27 562.499" stroke="black" stroke-width="5" stroke-linecap="round"/>
<path d="M1235.96 584.435C1264.05 610.671 1332.83 649.853 1383.15 596.693" stroke="black" stroke-width="5" stroke-linecap="round"/>
<path d="M1230.94 587.974C1230.94 600.155 1227.92 627.917 1215.87 641.524" stroke="black" stroke-width="5" stroke-linecap="round"/>
<path d="M968.205 616.422C941.686 652.217 904.559 733.12 968.205 770.379" stroke="black" stroke-width="5" stroke-linecap="round"/>
<path d="M1761.42 462.466L1776.48 437.364" stroke="black" stroke-width="5" stroke-linecap="round"/>
<path d="M1768.78 475.587L1796.56 474.295" stroke="black" stroke-width="5" stroke-linecap="round"/>
<path d="M1763.09 490.914L1779.82 512.669" stroke="black" stroke-width="5" stroke-linecap="round"/>
<path d="M1216.07 1279.12H764.045V1500" stroke="black" stroke-width="5" stroke-linecap="round"/>
<path d="M1530.36 1058.88H1160.46V1328.2" stroke="black" stroke-width="5" stroke-linecap="round"/>
<path d="M1774.8 750.162H1474.74V1109.9" stroke="black" stroke-width="5" stroke-linecap="round"/>
<path d="M1721.78 515.179V800.54" stroke="black" stroke-width="5" stroke-linecap="round"/>
<path d="M1721.78 415.609V439.874" stroke="black" stroke-width="5" stroke-linecap="round"/>
<path d="M1135.62 590.544L765.161 633.157C722.308 598.826 732.678 547.573 743.219 526.239L1000.73 495.372" stroke="black" stroke-width="5" stroke-linecap="round"/>
<path d="M1262.76 580.256L1389.9 568.038" stroke="black" stroke-width="5" stroke-linecap="round"/>
<path d="M1482.84 554.534L1566.09 548.745L1677.74 498.137C1664.32 483.886 1671.68 471.191 1677.28 466.649L1566.09 440.711L1125.94 477.366" stroke="black" stroke-width="5" stroke-linecap="round"/>
<path d="M703.328 526.771L741.065 522.71C714.893 581.344 744.894 621.234 764.045 636.755L720 643.198C683.186 598.363 692.676 548.188 703.328 526.771Z" fill="black"/>
<path d="M1681.76 500.955C1667.75 486.336 1675.62 468.925 1681.46 463.303L1734.64 476.427L1681.76 500.955Z" fill="black"/>
<path d="M1567.3 440.711C1553.41 458.346 1533.96 504.456 1567.3 547.811" stroke="black" stroke-width="5"/>
<path d="M1247.36 345.683C1258.43 338.87 1341.7 345.437 1357.89 240.695C1385.6 241.019 1400.67 218.316 1379.53 208.6C1356.98 196.974 1358.67 175.631 1362.76 163.056C1369.25 146.563 1369.65 129.248 1368.25 125.626" stroke="black" stroke-width="5" stroke-linecap="round"/>
<path d="M1333.45 202.872C1336.6 202.909 1339.19 199.114 1339.25 194.397C1339.3 189.679 1336.8 185.825 1333.65 185.788C1330.51 185.751 1327.92 189.546 1327.86 194.263C1327.8 198.981 1330.31 202.835 1333.45 202.872Z" fill="black"/>
<path d="M1317.99 168.3C1322.62 163.356 1334.58 156.126 1345.41 166.747" stroke="black" stroke-width="5" stroke-linecap="round"/>
<path d="M1286.58 264.549C1295.08 277.627 1304.41 281.341 1322.54 272.901" stroke="black" stroke-width="5" stroke-linecap="round"/>
<path d="M1217.01 172.883C1215.04 177.207 1213.39 187.024 1222.54 191.696" stroke="black" stroke-width="5" stroke-linecap="round"/>
<path d="M1119.46 128.48C1108.67 187.477 1142.41 231.889 1166.87 266.03C1193 251.916 1235.82 218.354 1219.39 214.731C1202.13 210.924 1183.93 163.844 1200.69 149.442C1220.36 132.546 1238.08 158.111 1241.46 177.497L1257.3 150.106C1252.82 130.947 1251.07 97.3405 1279.87 116.181C1308.68 135.021 1350.93 130.085 1368.45 125.263C1403.01 100.528 1456.7 42.8339 1395 9.93259C1343.69 -17.4323 1276.91 17.1643 1236.15 48.2512C1208.55 40.9652 1134.16 48.0383 1119.46 128.48Z" fill="black"/>
<path d="M1168.79 262.078C1181.27 277.095 1187.46 289.566 1186.69 315.398" stroke="black" stroke-width="5" stroke-linecap="round"/>
<path d="M1154.91 349.984C1150.55 334.749 1147.99 305.691 1172.69 311.339C1203.57 318.397 1266.5 348.931 1261.89 365.856" stroke="black" stroke-width="5" stroke-linecap="round"/>
<path d="M1261.89 389.671C1284.49 410.589 1289.51 423.977 1292.85 449.078" stroke="black" stroke-width="5" stroke-linecap="round"/>
<path d="M203.441 1068.17C234.13 1065.38 306.444 1083.68 354.749 1177.79C356.013 1180.26 359.576 1180.32 360.834 1177.86C410.383 1080.86 471.196 982.461 663.414 1100.93C666.369 1102.75 670.247 1099.46 668.783 1096.31C637.596 1029.24 620.743 901.323 766.066 837.864C768.982 836.592 768.853 832.26 765.8 831.366L728.21 820.38C724.764 819.372 725.139 814.645 728.715 814.322C767.439 810.833 822.068 813.107 803.26 835.955C781.301 862.629 775.901 879.496 781.255 907.345" stroke="black" stroke-width="5" stroke-linecap="round"/>
</svg>
