<svg width="2000" height="1503" viewBox="0 0 2000 1503" fill="none" xmlns="http://www.w3.org/2000/svg">
<path d="M229.98 1462.9C213.785 1448.54 285.743 1449.61 321.258 1448.94C326.372 1456.12 330.137 1456.26 339.371 1457.92C343.633 1468.89 246.175 1477.26 229.98 1462.9Z" fill="black"/>
<path d="M783.707 377.393C780.413 389.311 777.959 428.04 790.892 459.82" stroke="black" stroke-width="5" stroke-linecap="round"/>
<path d="M773.229 467.608C803.921 456.61 862.368 443.151 862.368 481.197V487.8C862.368 492.257 867.461 494.782 870.983 492.052C920.255 453.877 1020.51 377.393 1055.84 319.498" stroke="black" stroke-width="5" stroke-linecap="round"/>
<path d="M909.246 173.288C939.397 197.026 986.194 248.264 940.709 269.109C938.042 270.33 936.57 273.285 937.33 276.103C946.279 309.243 944.865 377.674 875.44 424.015C874.406 424.703 873.611 425.728 873.235 426.906L859.581 469.632" stroke="black" stroke-width="5" stroke-linecap="round"/>
<path d="M879.403 347.955C878.332 352.665 881.114 362.399 900.794 363.655" stroke="black" stroke-width="5" stroke-linecap="round"/>
<path d="M932.195 224.314C932.195 234.635 929.074 243.711 924.356 250.051C919.637 256.387 913.663 259.64 907.663 259.64C901.664 259.64 895.689 256.387 890.971 250.051C886.252 243.711 883.131 234.635 883.131 224.314C883.131 213.994 886.252 204.918 890.971 198.578C895.689 192.241 901.664 188.989 907.663 188.989C913.663 188.989 919.637 192.241 924.356 198.578C929.074 204.918 932.195 213.994 932.195 224.314Z" stroke="black" stroke-width="5" stroke-linecap="round"/>
<path d="M818.367 255.715L879.206 234.127" stroke="black" stroke-width="5" stroke-linecap="round"/>
<path d="M865.469 214.502C867.018 207.961 872.72 192.913 883.131 185.063" stroke="black" stroke-width="5" stroke-linecap="round"/>
<path d="M910.607 230.202C914.943 230.202 918.457 227.566 918.457 224.314C918.457 221.063 914.943 218.427 910.607 218.427C906.271 218.427 902.757 221.063 902.757 224.314C902.757 227.566 906.271 230.202 910.607 230.202Z" fill="black"/>
<path d="M883.91 873.917C880.297 835.335 877.405 750.201 894.755 718.301C912.105 686.399 928.774 640.767 940.499 622.306C979.926 599.545 1073.89 512.22 1134.34 345.011" stroke="black" stroke-width="5" stroke-linecap="round"/>
<path d="M773.229 465.707L547.536 730.651" stroke="black" stroke-width="5" stroke-linecap="round"/>
<path d="M547.536 731.464C564.269 729.204 607.767 730.3 647.92 752.783C698.113 780.885 751.256 830.309 883.131 873.917" stroke="black" stroke-width="5" stroke-linecap="round"/>
<path d="M883.131 873.917L837.993 905.317" stroke="black" stroke-width="5" stroke-linecap="round"/>
<path d="M547.562 730.651C544.505 740.128 541.47 762.231 567.162 789.527" stroke="black" stroke-width="5" stroke-linecap="round"/>
<path d="M712.39 538.321C675.868 568.744 583.257 632.925 504.994 646.273C486.734 653.796 455.299 674.927 475.647 699.264C495.995 723.604 509.561 753.241 513.801 765.015C517.062 775.812 525.179 790.864 544.745 756.32" stroke="black" stroke-width="5" stroke-linecap="round"/>
<path d="M482.772 709.063C467.61 718.004 432.253 735.088 412.122 731.908C391.992 728.731 378.572 737.207 374.378 741.843C372.119 745.485 370.7 752.968 383.088 753.763C395.476 754.558 410.187 754.093 415.993 753.763" stroke="black" stroke-width="5" stroke-linecap="round"/>
<path d="M431.746 740.464C424.955 748.072 401.866 765.366 363.837 773.668C356.4 775.051 346.375 783.005 359.957 792.345C371.598 799.609 403.806 792.968 420.105 783.005" stroke="black" stroke-width="5" stroke-linecap="round"/>
<path d="M419.928 781.677C407.455 787.956 385.003 804.673 394.982 821.324C398.18 824.628 411.676 824.891 440.076 799.517L461.184 781.677" stroke="black" stroke-width="5" stroke-linecap="round"/>
<path d="M462.24 782.055L440.689 800.057C434.484 816.393 425.015 856.067 450.485 834.063C469.098 815.06 465.179 798.859 473.016 794.056C480.853 789.256 498.486 770.721 506.323 762.052" stroke="black" stroke-width="5" stroke-linecap="round"/>
<path d="M463.165 750.276C460.554 758.355 458.465 777.124 470.997 787.565" stroke="black" stroke-width="5" stroke-linecap="round"/>
<path d="M700.615 1411.65C712.96 1408.38 737.845 1391.83 738.623 1351.8C739.405 1311.76 755.842 1242.88 763.963 1213.44L843.881 860.179" stroke="black" stroke-width="5" stroke-linecap="round"/>
<path d="M873.319 291.041C875.486 291.041 877.244 289.723 877.244 288.097C877.244 286.471 875.486 285.153 873.319 285.153C871.151 285.153 869.394 286.471 869.394 288.097C869.394 289.723 871.151 291.041 873.319 291.041Z" fill="black"/>
<path d="M886.075 302.816C887.701 302.816 889.019 301.937 889.019 300.854C889.019 299.77 887.701 298.891 886.075 298.891C884.449 298.891 883.131 299.77 883.131 300.854C883.131 301.937 884.449 302.816 886.075 302.816Z" fill="black"/>
<path d="M857.618 310.666C858.702 310.666 859.581 308.909 859.581 306.741C859.581 304.573 858.702 302.816 857.618 302.816C856.534 302.816 855.656 304.573 855.656 306.741C855.656 308.909 856.534 310.666 857.618 310.666Z" fill="black"/>
<path d="M567.642 262.917C615.337 174.267 686.553 163.121 716.201 168.628C777.773 74.3383 862.805 43.233 914.605 71.423C956.046 93.9739 922.099 150.807 899.945 176.405L878.444 145.3C863.588 174.073 821.106 163.444 800.253 156.964C818.171 194.55 846.775 291.692 786.57 379.566C726.366 467.439 650.717 468.993 612.598 443.721C577.414 418.772 519.947 351.57 567.642 262.917Z" fill="black"/>
<path d="M543.611 1423.43C550.117 1433.61 571.784 1452.83 606.413 1448.25" stroke="black" stroke-width="5" stroke-linecap="round"/>
<path d="M598.152 736.538C585.873 771.664 528.341 843.867 476.953 934.61C442.693 991.527 360.988 1118.63 308.241 1171.71C301.131 1181.79 294.473 1204.69 324.724 1215.61C347.995 1225.37 358.467 1248.01 361.569 1272.21C365.448 1302.46 414.898 1324.9 447.864 1302.46C474.14 1284.57 549.695 1155.72 606.776 1082.92C621.309 1064.38 634.644 1049.48 645.664 1040.96" stroke="black" stroke-width="5" stroke-linecap="round"/>
<path d="M608.187 1083.91L543.611 1423.43C576.434 1414.67 666.598 1398.13 722.203 1398.13" stroke="black" stroke-width="5" stroke-linecap="round"/>
<path d="M286.78 1395.37C233.287 1291.68 282.874 1222.67 309.693 1205.59C351.267 1218.66 352.39 1262.25 359.132 1282.96L343.572 1325.56C333.16 1343.89 339.234 1379.74 343.572 1395.37C361.556 1467.79 334.413 1474.75 321.092 1455.36L286.78 1395.37Z" fill="black"/>
<path d="M571.989 1490.45C553.971 1476.18 589.608 1470.65 625.77 1468.57C638.368 1479.83 722.045 1483.68 726.128 1486.28C687.632 1498.8 587.78 1502.96 571.989 1490.45Z" fill="black"/>
<path d="M752.978 1484.34C616.36 1503.07 588.007 1449.04 590.907 1417.45C614.403 1407.64 679.011 1404.07 709.468 1401.84C700.766 1422.36 711.643 1419.68 719.257 1425.25C729.049 1431.94 756.24 1440.12 771.469 1440.86C839.996 1444.21 786.335 1479.51 752.978 1484.34Z" fill="black"/>
<path d="M1074.8 146.747C1081.06 143.149 1093.97 141.841 1095.54 165.391" stroke="black" stroke-width="5" stroke-linecap="round"/>
<path d="M1062.17 209.548C1062.83 200.391 1062.17 179.522 1054.32 169.317C1044.51 156.56 1042.55 132.028 1062.17 133.991C1068.4 134.614 1072.37 139.79 1074.8 146.747C1078.5 157.323 1078.66 172.016 1077.87 181.092" stroke="black" stroke-width="5" stroke-linecap="round"/>
<path d="M1049.84 235.061C1049.04 226.23 1045.69 205.819 1038.62 194.829C1029.79 181.091 1028.81 145.766 1047.45 149.691" stroke="black" stroke-width="5" stroke-linecap="round"/>
<path d="M1062.17 301.788C1057.27 301.788 1046.86 297.078 1044.51 278.237C1042.15 259.397 1033.72 247.492 1029.79 243.893C1027.5 238.333 1025.08 226.819 1033.72 225.249C1038.8 224.324 1044.81 229.252 1049.84 235.061L1058.25 246.837" stroke="black" stroke-width="5" stroke-linecap="round"/>
<path d="M1107.31 214.455C1109.6 210.204 1111.82 199.343 1102.4 189.923C1090.63 178.148 1093.57 167.354 1100.44 164.41C1107.31 161.466 1117.12 163.429 1126.94 192.867C1136.75 218.38 1151.27 283.144 1134.79 338.095" stroke="black" stroke-width="5" stroke-linecap="round"/>
<path d="M1152.14 60.9121L1167.54 32.9197" stroke="black" stroke-width="5" stroke-linecap="round"/>
<path d="M1019 74.1332L1046.47 91.7961" stroke="black" stroke-width="5" stroke-linecap="round"/>
<path d="M1068.85 3L1095.73 64.8023" stroke="black" stroke-width="5" stroke-linecap="round"/>
<path d="M1163.99 145.806C1163.99 125.202 1168.78 90.8086 1193.71 121.958C1209.04 144.346 1214.79 188.928 1203.29 211.511" stroke="black" stroke-width="5" stroke-linecap="round"/>
<path d="M1113.19 164.788C1109.99 153.431 1108.4 132.276 1127.57 138.506L1148.65 181.336" stroke="black" stroke-width="5" stroke-linecap="round"/>
<path d="M1148.65 181.336L1127.57 138.506C1125.97 125.852 1134.28 105.41 1154.41 121.958L1163.99 145.806L1173.58 169.655" stroke="black" stroke-width="5" stroke-linecap="round"/>
<path d="M1174.04 241.93C1168.8 253.38 1163.24 279.415 1182.87 291.975" stroke="black" stroke-width="5" stroke-linecap="round"/>
<path d="M1198.57 225.248C1203.15 212.166 1217.02 186.195 1235.86 186.98C1254.7 187.765 1239.78 212.492 1235.86 221.323L1208.38 275.293C1202.49 290.012 1193.66 316.507 1214.27 346.926C1234.88 374.402 1305.94 445.053 1382.48 456.829" stroke="black" stroke-width="5" stroke-linecap="round"/>
<path d="M1368.33 867.001C1374.22 887.935 1395.81 936.475 1435.06 963.165M1307.49 832.656L1385.01 855.225L1307.49 832.656ZM1381.09 894.476C1389.59 866.673 1400.52 797.723 1376.18 744.342C1345.76 677.615 1327.12 592.244 1341.84 535.331C1353.61 489.8 1396.46 482.995 1416.41 485.286C1447.81 488.889 1501.98 526.499 1498.84 628.551C1494.91 756.117 1465.48 865.038 1423.28 949.427L1381.09 894.476Z" stroke="black" stroke-width="5" stroke-linecap="round"/>
<path d="M1349.69 940.596C1349.69 890.551 1349.36 855.225 1343.8 841.488C1419.16 869.748 1510.61 862.422 1546.92 855.225C1547.9 857.516 1555.95 879.365 1580.28 948.446C1610.7 1034.8 1589.12 1323.29 1580.28 1355.67C1571.45 1388.06 1547.9 1389.04 1513.56 1385.11C1486.08 1381.97 1449.78 1306.61 1435.06 1269.32C1366.37 1140.78 1349.69 999.317 1349.69 940.596Z" fill="black"/>
<path d="M1616.14 679.646C1625.87 703.524 1647.89 764.232 1658.1 816.043C1629.96 835.996 1550.85 873.869 1456.64 862.094L1307.49 832.656C1301.6 783.267 1300.91 657.469 1340.16 545.212C1340.16 535.073 1350.47 506.677 1373.24 494.117" stroke="black" stroke-width="5" stroke-linecap="round"/>
<path d="M1607.76 764.948C1607.34 758.649 1618.97 712.809 1616.14 679.646C1614.56 661.153 1612.54 638.082 1610.01 609.976C1602.95 531.474 1575.01 471.291 1561.93 451.01C1548.85 430.731 1517.89 418.559 1493.36 427.391" stroke="black" stroke-width="5" stroke-linecap="round"/>
<path d="M1588.92 1290.82C1597.38 1106.77 1559.87 932.877 1539.07 865.038C1591.52 857.959 1632.84 835.288 1647.99 827.75C1663.22 885.168 1685.5 1032.58 1694.67 1100.09C1717.51 1174.02 1712.64 1280.34 1707.36 1324.25C1710.74 1350.99 1689.03 1361.61 1677.75 1363.58C1617.69 1383.24 1593.51 1323.27 1588.92 1290.82Z" fill="black"/>
<path d="M1111.24 161.466C1127.92 188.288 1152.65 253.313 1133.81 345.945C1135.44 365.898 1164.56 431.877 1186.79 461.735C1221.14 507.855 1292.77 559.862 1336.93 574.581" stroke="black" stroke-width="5" stroke-linecap="round"/>
<path d="M1415.69 441.548C1402.71 433.559 1305.05 441.26 1286.07 318.422C1253.56 318.803 1235.89 292.177 1260.69 280.783C1287.13 267.149 1285.15 242.119 1280.36 227.37C1272.74 208.029 1272.28 187.722 1273.92 183.475" stroke="black" stroke-width="5" stroke-linecap="round"/>
<path d="M1313.04 274.27C1308.39 274.324 1304.56 268.721 1304.48 261.756C1304.4 254.791 1308.1 249.1 1312.74 249.045C1317.39 248.991 1321.22 254.594 1321.3 261.559C1321.38 268.524 1317.68 274.215 1313.04 274.27Z" fill="black"/>
<path d="M1332.85 233.519C1327.43 227.723 1313.41 219.243 1300.7 231.699" stroke="black" stroke-width="5" stroke-linecap="round"/>
<path d="M1369.69 346.398C1359.73 361.736 1348.78 366.091 1327.53 356.193" stroke="black" stroke-width="5" stroke-linecap="round"/>
<path d="M1451.29 238.896C1453.59 243.967 1455.53 255.48 1444.79 260.959" stroke="black" stroke-width="5" stroke-linecap="round"/>
<path d="M1565.69 186.821C1578.34 256.011 1538.77 308.095 1510.08 348.135C1479.44 331.583 1429.23 292.222 1448.49 287.973C1468.73 283.509 1490.08 228.296 1470.42 211.407C1447.36 191.59 1426.57 221.573 1422.61 244.307L1404.03 212.184C1409.29 189.715 1411.35 150.303 1377.57 172.398C1343.78 194.491 1294.23 188.705 1273.68 183.049C1233.15 154.041 1170.19 86.3796 1242.54 47.7942C1302.73 15.7019 1381.04 56.2753 1428.84 92.7327C1461.21 84.188 1548.45 92.4831 1565.69 186.821Z" fill="black"/>
<path d="M1507.83 343.5C1493.2 361.111 1485.93 375.736 1486.84 406.032" stroke="black" stroke-width="5" stroke-linecap="round"/>
<path d="M1598.67 1502.36C1477 1507.27 1419.1 1482.85 1419.1 1466.05C1419.1 1459.18 1415.17 1452.32 1442.65 1442.5C1430.88 1458.53 1435.19 1489.02 1546.67 1482.74C1564.65 1483.72 1605.15 1479.01 1623.2 1452.32H1632.04C1720.35 1429.75 1772.36 1448.27 1772.36 1465.07C1772.36 1481.87 1699.74 1498.29 1598.67 1502.36Z" fill="black"/>
<path d="M1621.48 1451.89C1687.2 1458.17 1695.49 1405.44 1691.42 1378.29" stroke="black" stroke-width="5" stroke-linecap="round"/>
<path d="M1534.42 1403.8C1534.42 1408.06 1533.43 1417.35 1529.51 1420.49C1524.6 1424.41 1436.29 1414.6 1438.25 1458.75C1437.27 1464.97 1447.08 1474.46 1470.63 1477.4C1503.76 1481.54 1598.71 1493.63 1621.48 1451.89C1622.8 1449.46 1623.88 1446.84 1624.69 1444.04L1633.52 1406.75" stroke="black" stroke-width="5" stroke-linecap="round"/>
</svg>
