<svg width="2048" height="1503" viewBox="0 0 2048 1503" fill="none" xmlns="http://www.w3.org/2000/svg">
<path d="M1569.77 1404.22C1507.42 1353.41 1591.91 1347.45 1641.94 1350.81V1384.01L1761.74 1414.32C1723.73 1432.12 1632.13 1455.02 1569.77 1404.22Z" fill="white"/>
<path d="M1897.41 1373.91C1857 1378.53 1844.97 1360.44 1844.01 1350.81H1930.61C1936.38 1356.59 1937.82 1369.29 1897.41 1373.91Z" fill="white"/>
<path d="M1806.48 1233.91C1761.74 1233.91 1737.2 1231.02 1701.12 1228.13" stroke="white" stroke-width="5" stroke-linecap="round"/>
<path d="M1841.12 1251.23V1389.78" stroke="white" stroke-width="5" stroke-linecap="round"/>
<path d="M1737.2 1258.44L1641.94 1251.23" stroke="white" stroke-width="5" stroke-linecap="round"/>
<path d="M1781.94 1272.88V1412.88" stroke="white" stroke-width="5" stroke-linecap="round"/>
<path d="M1780.5 1415.76L1841.12 1391.23" stroke="white" stroke-width="5" stroke-linecap="round"/>
<path d="M1699.68 1228.13L1641.94 1251.23" stroke="white" stroke-width="5" stroke-linecap="round"/>
<path d="M1640.5 1252.67V1385.45" stroke="white" stroke-width="5" stroke-linecap="round"/>
<path d="M1639.06 1384.01L1780.5 1415.76" stroke="white" stroke-width="5" stroke-linecap="round"/>
<path d="M1806.48 1236.79V1196.38" stroke="white" stroke-width="5" stroke-linecap="round"/>
<path d="M1932.05 1349.37V1209.37" stroke="white" stroke-width="5" stroke-linecap="round"/>
<path d="M1999.89 1163.18V1319.06" stroke="white" stroke-width="5" stroke-linecap="round"/>
<path d="M1932.05 1352.26L1999.89 1319.06" stroke="white" stroke-width="5" stroke-linecap="round"/>
<path d="M1999.89 1161.74L1846.89 1155.97" stroke="white" stroke-width="5" stroke-linecap="round"/>
<path d="M1806.48 1196.38L1846.89 1155.97" stroke="white" stroke-width="5" stroke-linecap="round"/>
<path d="M1932.05 1207.93L1998.44 1164.63" stroke="white" stroke-width="5" stroke-linecap="round"/>
<path d="M1932.05 1349.37H1846.89" stroke="white" stroke-width="5" stroke-linecap="round"/>
<path d="M1807.92 1196.38L1890.19 1199.27" stroke="white" stroke-width="5" stroke-linecap="round"/>
<path d="M654.614 1464.97C656.057 1424.56 817.709 1437.55 827.812 1438.99V1464.97L876.885 1499.61C802.314 1501.53 653.459 1497.3 654.614 1464.97Z" fill="white"/>
<path d="M1055.86 1460.64V1313.42" stroke="white" stroke-width="5" stroke-linecap="round"/>
<path d="M930.287 1498.17V1336.51" stroke="white" stroke-width="5" stroke-linecap="round"/>
<path d="M826.368 1460.64V1298.99" stroke="white" stroke-width="5" stroke-linecap="round"/>
<path d="M826.368 1298.99L940.39 1270.12" stroke="white" stroke-width="5" stroke-linecap="round"/>
<path d="M1055.86 1311.98L930.287 1335.07" stroke="white" stroke-width="5" stroke-linecap="round"/>
<path d="M930.287 1499.61L1055.86 1462.08" stroke="white" stroke-width="5" stroke-linecap="round"/>
<path d="M1055.86 1311.98L940.39 1270.12" stroke="white" stroke-width="5" stroke-linecap="round"/>
<path d="M826.368 1300.43L931.73 1335.07" stroke="white" stroke-width="5" stroke-linecap="round"/>
<path d="M1196.57 1457.75C1170.01 1411.57 1254.78 1404.83 1300.48 1407.24V1440.43L1449.15 1457.75C1376.02 1477 1223.12 1503.94 1196.57 1457.75Z" fill="white"/>
<path d="M1522.75 1395.69L1466.46 1453.42" stroke="white" stroke-width="5" stroke-linecap="round"/>
<path d="M1453.47 1277.34L1307.7 1267.23" stroke="white" stroke-width="5" stroke-linecap="round"/>
<path d="M1366.87 1229.71L1522.75 1236.93" stroke="white" stroke-width="5" stroke-linecap="round"/>
<path d="M1304.81 1267.23L1297.59 1434.66" stroke="white" stroke-width="5" stroke-linecap="round"/>
<path d="M1522.75 1239.81V1392.8" stroke="white" stroke-width="5" stroke-linecap="round"/>
<path d="M1466.46 1330.74V1453.42" stroke="white" stroke-width="5" stroke-linecap="round"/>
<path d="M1304.81 1267.24L1366.87 1229.71" stroke="white" stroke-width="5" stroke-linecap="round"/>
<path d="M1466.46 1453.42L1296.15 1436.1" stroke="white" stroke-width="5" stroke-linecap="round"/>
<path d="M1166.47 376.025C1172.72 374.1 1189.27 372.273 1205.44 380.355" stroke="white" stroke-width="5" stroke-linecap="round"/>
<path d="M1108.73 451.078C1119.89 451.078 1128.94 441.385 1128.94 429.428C1128.94 417.472 1119.89 407.779 1108.73 407.779C1097.57 407.779 1088.53 417.472 1088.53 429.428C1088.53 441.385 1097.57 451.078 1108.73 451.078Z" fill="white"/>
<path d="M1273.27 479.945C1284.43 479.945 1293.48 470.252 1293.48 458.295C1293.48 446.338 1284.43 436.645 1273.27 436.645C1262.11 436.645 1253.07 446.338 1253.07 458.295C1253.07 470.252 1262.11 479.945 1273.27 479.945Z" fill="white"/>
<path d="M1059.66 394.788C1061.1 385.646 1070.05 368.231 1094.3 371.695" stroke="white" stroke-width="5" stroke-linecap="round"/>
<path d="M1244.41 391.902C1255.95 381.798 1284.82 367.654 1307.91 391.902" stroke="white" stroke-width="5" stroke-linecap="round"/>
<path d="M1182.34 416.438C1195.82 438.57 1214.67 486.007 1182.34 498.708L1166.47 504.481" stroke="white" stroke-width="5" stroke-linecap="round"/>
<path d="M1127.5 549.224C1130.87 558.366 1143.66 573.472 1167.91 560.77" stroke="white" stroke-width="5" stroke-linecap="round"/>
<path d="M662.747 337.056C615.406 492.934 746.938 605.995 818.625 643.039C883.286 603.781 975.465 583.863 1014.92 578.09C965.844 537.677 950.929 463.586 947.081 429.428C921.101 438.088 851.822 404.892 883.575 337.056C908.977 282.787 936.495 310.594 947.081 331.282L1017.8 363.035C1017.8 297.22 1063.03 274.993 1085.64 272.106C1099.5 262.869 1114.51 232.654 1120.28 218.703C1127.21 272.972 1198.22 312.519 1232.86 325.509C1277.89 289.715 1314.16 310.594 1326.67 325.509L1358.43 321.179C1420.49 300.011 1531.91 227.652 1481.11 107.568C1430.3 -12.5165 1325.23 9.42192 1279.04 35.4017C1120.86 -69.672 961.993 83.9925 902.338 173.96C842.198 163.375 710.088 181.177 662.747 337.056Z" fill="white"/>
<path d="M1016.36 364.479L947.082 328.396" stroke="white" stroke-width="5" stroke-linecap="round"/>
<path d="M1165.02 361.592C1165.02 411.372 1131 449.635 1091.41 449.635C1051.83 449.635 1017.8 411.372 1017.8 361.592C1017.8 311.809 1051.83 273.55 1091.41 273.55C1131 273.55 1165.02 311.809 1165.02 361.592Z" stroke="white" stroke-width="5"/>
<path d="M1355.54 393.345C1355.54 443.125 1321.52 481.388 1281.93 481.388C1242.35 481.388 1208.32 443.125 1208.32 393.345C1208.32 343.562 1242.35 305.303 1281.93 305.303C1321.52 305.303 1355.54 343.562 1355.54 393.345Z" stroke="white" stroke-width="5"/>
<path d="M1358.43 671.574C1469.28 582.666 1406.06 462.775 1359.87 413.22C1334.47 533.304 1275.68 584.975 1250.18 596.522L1290.59 618.171L1358.43 671.574Z" fill="white"/>
<path d="M955.742 361.592C953.338 335.13 922.546 272.106 889.35 331.282C874.916 358.223 864.525 415.861 938.423 430.872" stroke="white" stroke-width="5" stroke-linecap="round"/>
<path d="M931.206 351.489C924.471 357.262 914.463 372.273 928.319 386.129" stroke="white" stroke-width="5" stroke-linecap="round"/>
<path d="M1349.77 426.542C1341.69 472.728 1323.79 514.564 1305.03 540.564C1293.29 556.821 1274.29 577.342 1250.05 595.231" stroke="white" stroke-width="5" stroke-linecap="round"/>
<path d="M945.639 430.872C944.678 489.566 967.581 576.647 1072.65 622.833C1088.82 629.937 1104.71 634.013 1120.15 635.656" stroke="white" stroke-width="5" stroke-linecap="round"/>
<path d="M1240.08 693.556C1216.98 687.782 1194.85 706.546 1186.67 716.649C1182.34 725.791 1180.32 743.783 1206.88 742.629C1240.08 741.185 1250.18 693.556 1289.15 770.052C1320.33 831.248 1322.35 951.428 1319.46 1003.87" stroke="white" stroke-width="5" stroke-linecap="round" stroke-linejoin="round"/>
<path d="M1164.52 677.679C1156.99 694.038 1150.88 724.731 1186.67 716.649" stroke="white" stroke-width="5" stroke-linecap="round" stroke-linejoin="round"/>
<path d="M1178.45 621.39C1158.25 630.05 1128.94 661.226 1140.49 682.009C1141.93 684.414 1146.26 688.937 1152.03 687.783C1154.56 687.277 1158.69 682.875 1164.52 677.679C1175.36 668.041 1192.1 655.672 1215.54 660.36" stroke="white" stroke-width="5" stroke-linecap="round" stroke-linejoin="round"/>
<path d="M1582.35 1117C1596.78 1046.27 1582.72 880.322 1406.06 720.979L1289.15 618.503L1215.54 579.534L1201.11 576.647L1146.26 589.637L1140.49 595.41L1121.72 630.05C1118.84 637.266 1131.25 645.638 1152.04 638.71" stroke="white" stroke-width="5" stroke-linecap="round" stroke-linejoin="round"/>
<path d="M1010.59 583.863C916.775 596.371 673.229 650.149 525.635 868.197C386.534 1073.7 543.856 1160.3 660.765 1164.63" stroke="white" stroke-width="5" stroke-linecap="round" stroke-linejoin="round"/>
<path d="M3.35669 1193.49L654.293 1161.74" stroke="white" stroke-width="5" stroke-linecap="round" stroke-linejoin="round"/>
<path d="M831.822 1154.52L2044.64 1101.68" stroke="white" stroke-width="5" stroke-linecap="round"/>
<path d="M723.704 1166.84C725.488 1172.38 724.174 1176.35 717.223 1176.95C696.65 1178.72 672.218 1146.82 662.576 1130.66" stroke="white" stroke-width="5" stroke-linecap="round"/>
<path d="M723.653 1104.21C733.921 1120.61 751.827 1145.89 767.524 1160.23C766.092 1171.25 755.322 1188.01 723.705 1166.84C718.89 1151.91 691.507 1125.65 691.507 1124.05" stroke="white" stroke-width="5" stroke-linecap="round"/>
<path d="M751.511 1088.78C771.155 1110.45 806.802 1156.89 792.23 1169.24C789.647 1171.42 786.353 1171.63 782.586 1170.35C778.1 1168.83 772.945 1165.18 767.523 1160.23C751.826 1145.89 733.92 1120.61 723.652 1104.21" stroke="white" stroke-width="5" stroke-linecap="round"/>
<path d="M590.041 1145.27C622.9 1104.12 727.939 1014.93 787.943 1068.94C811.874 1092.82 841.698 1135.98 824.555 1153.62C815.981 1160.23 797.426 1151.41 785.458 1133.78" stroke="white" stroke-width="5" stroke-linecap="round"/>
<path d="M707.1 910.602C686.412 926.961 653.986 969.49 689.781 1008.75" stroke="white" stroke-width="5" stroke-linecap="round"/>
</svg>
